<svg width="51" height="50" viewBox="0 0 51 50" fill="none" xmlns="http://www.w3.org/2000/svg">
<path d="M48.8166 11.5568H38.3196L33.2599 1.18223C32.76 0.151915 31.5155 -0.276534 30.4749 0.223323C29.4446 0.72318 29.0162 1.97792 29.516 3.00824L33.6883 11.567H18.1213L22.2936 3.00824C22.8037 1.97792 22.365 0.72318 21.3347 0.223323C20.2942 -0.286735 19.0496 0.151915 18.5498 1.18223L13.4798 11.567H2.99302C1.25882 11.567 0.667154 13.0258 0.98339 14.1989L10.3379 48.4646C10.5827 49.3725 11.409 49.9948 12.3475 49.9948H39.4724C40.4109 49.9948 41.2372 49.3623 41.482 48.4646L50.8263 14.1887C51.1221 13.1686 50.5712 11.5568 48.8166 11.5568V11.5568ZM37.881 45.8327H13.9287L5.71673 15.7291H11.4498L9.71558 19.2791C9.20553 20.3094 9.64418 21.5642 10.6745 22.064C11.715 22.5741 12.9596 22.1354 13.4594 21.1051L16.0811 15.7291H35.7183L38.34 21.1051C38.8399 22.1354 40.0844 22.5639 41.125 22.064C42.1553 21.5642 42.5837 20.3094 42.0839 19.2791L40.3497 15.7291H46.0827L37.881 45.8327V45.8327Z" fill="white"/>
<path d="M17.295 26.1853C16.1423 26.1853 15.214 27.1136 15.214 28.2663V38.2941C15.214 39.4468 16.1423 40.3751 17.295 40.3751C18.4478 40.3751 19.3761 39.4468 19.3761 38.2941V28.2663C19.3761 27.1136 18.4478 26.1853 17.295 26.1853Z" fill="white"/>
<path d="M25.9049 26.1853C24.7522 26.1853 23.8239 27.1136 23.8239 28.2663V38.2941C23.8239 39.4468 24.7522 40.3751 25.9049 40.3751C27.0576 40.3751 27.9859 39.4468 27.9859 38.2941V28.2663C27.9859 27.1136 27.0576 26.1853 25.9049 26.1853V26.1853Z" fill="white"/>
<path d="M34.5146 26.1853C33.3619 26.1853 32.4336 27.1136 32.4336 28.2663V38.2941C32.4336 39.4468 33.3619 40.3751 34.5146 40.3751C35.6674 40.3751 36.5957 39.4468 36.5957 38.2941V28.2663C36.5957 27.1136 35.6674 26.1853 34.5146 26.1853Z" fill="white"/>
</svg>
